<svg xmlns="http://www.w3.org/2000/svg" width="172" height="42.887" viewBox="0 0 172 42.887">
  <path id="Logo_Empathy" d="M107.824,469.612V465.5h-8.4v4.108H98.41v-8.9h1.018v3.842h8.4v-3.842h1.018v8.9Zm2.861-6.678H111.7v3.371c0,1.475.852,2.544,3.116,2.544a5.536,5.536,0,0,0,3.791-1.437v-4.478h1.018v6.678h-.9l-.064-1.247-.013-.013a6.345,6.345,0,0,1-4.071,1.45c-2.735,0-3.892-1.488-3.892-3.485Zm10.659,6.678v-6.665l.979-.115.026.725.013.013a6.148,6.148,0,0,1,2.9-.827,3.651,3.651,0,0,1,2.887,1.043,8.149,8.149,0,0,1,3.638-1.043c2.722,0,3.676,1.488,3.676,3.485v3.383h-1.018v-3.383c0-1.45-.6-2.544-2.76-2.544a7.221,7.221,0,0,0-3.142.814,3.763,3.763,0,0,1,.369,1.73v3.383h-1.018v-3.383c0-1.45-.56-2.544-2.709-2.544a6.457,6.457,0,0,0-2.824.725v5.2Zm25.528,0a4.031,4.031,0,0,1-1.107.191c-1.107,0-1.259-.6-1.272-1.514a5.121,5.121,0,0,1-3.854,1.514c-2.035,0-3.46-.814-3.46-2.341,0-1.679,1.819-2.061,3.46-2.061a27.422,27.422,0,0,1,3.8.305c0-1.119-.84-2.01-3.307-2.01a10.544,10.544,0,0,0-3.091.42l-.331-.891a11.9,11.9,0,0,1,3.422-.483c3.205,0,4.338,1.323,4.338,3.1V467.9c0,.649.127.967.7.967a2.328,2.328,0,0,0,.7-.14Zm-6.068-.687c1.615,0,3.256-.712,3.651-1.628v-1.2h-3.867c-1.107,0-2.379.229-2.379,1.3C138.209,468.429,139.328,468.925,140.8,468.925Zm15.238.687v-3.383c0-1.45-.839-2.544-3.167-2.544a12.283,12.283,0,0,0-3.74.725v5.2h-1.018v-6.665l.979-.115.026.725.013.013a10.2,10.2,0,0,1,3.842-.827c2.875,0,4.083,1.488,4.083,3.485v3.383Zm12.655-6.869c2.951,0,4.579,1.476,4.579,3.524s-1.628,3.536-4.579,3.536-4.579-1.488-4.579-3.536S165.746,462.743,168.7,462.743Zm0,6.106c2.315,0,3.536-1.094,3.536-2.582s-1.221-2.582-3.536-2.582-3.549,1.081-3.549,2.582S166.381,468.849,168.7,468.849Zm7.44-5.915h1.908v.852h-1.908v5.826h-1.018v-5.826h-.89v-.852h.89v-.064c0-1.793.7-2.353,1.832-2.353a6.66,6.66,0,0,1,1.31.178v.8a5.932,5.932,0,0,0-1.03-.127c-.788,0-1.094.471-1.094,1.5Zm14.284-1.272v7.95H189.4v-7.95H184.76v-.954h10.3v.954Zm13.9,7.95v-3.383c0-1.45-.839-2.544-3.167-2.544a12.283,12.283,0,0,0-3.74.725v5.2H196.4v-8.98l1.018-.115v2.1l-.013.941.013.013a10.2,10.2,0,0,1,3.842-.827c2.875,0,4.083,1.488,4.083,3.485v3.383Zm2.988-7.48v-1.526h1.018v1.526Zm0,7.48v-6.665l1.018-.115v6.78Zm10.914,0v-3.383c0-1.45-.84-2.544-3.167-2.544a12.284,12.284,0,0,0-3.74.725v5.2H210.3v-6.665l.979-.115.026.725.013.013a10.2,10.2,0,0,1,3.842-.827c2.875,0,4.083,1.488,4.083,3.485v3.383Zm6.881-6.869a8.372,8.372,0,0,1,1.425.127,11.892,11.892,0,0,1,3.205-.458l.051.636a16.9,16.9,0,0,0-2.29.165,2.234,2.234,0,0,1,1.73,2.073c0,1.679-1.743,2.353-4.121,2.353a7.766,7.766,0,0,1-2.137-.254,2.285,2.285,0,0,0-.789,1.666,14.8,14.8,0,0,1,4.5-.75c1.654,0,3.079.394,3.079,1.666,0,1.959-3.358,2.15-4.669,2.15a15.945,15.945,0,0,1-4.554-.534l.2-.891a18.7,18.7,0,0,0,4.554.483c1.2,0,3.422-.166,3.422-1.17,0-.712-1.208-.916-2.646-.916a17.525,17.525,0,0,0-4.109.534.687.687,0,0,1-.636-.662,2.493,2.493,0,0,1,1.107-1.743,2.03,2.03,0,0,1-1.45-1.933C220.984,463.608,222.8,462.743,225.106,462.743Zm0,4.045c1.768,0,3.091-.445,3.091-1.5s-1.361-1.59-3.091-1.59-3.078.534-3.078,1.59S223.337,466.788,225.106,466.788Zm5.837,1.514a16.513,16.513,0,0,0,4.172.547c1,0,3.676-.1,3.676-1.208,0-1.005-1.7-.992-3.511-1.018-2.086-.025-4.4-.14-4.4-1.857,0-1.921,2.773-2.022,4.287-2.022a24.135,24.135,0,0,1,4.071.381l-.165.941A22.391,22.391,0,0,0,235,463.7c-1.348,0-3.078.089-3.078,1.068,0,.954,1.59.954,3.333.967,2.137.025,4.567.089,4.567,1.9,0,2.035-3.473,2.175-4.821,2.175a15.788,15.788,0,0,1-4.261-.56ZM153.356,441.98v8.573h-4.524v-7.972c0-2.341-.19-4.081-4.777-4.081a20.257,20.257,0,0,0-5.527.9,9.389,9.389,0,0,1,.339,2.577v8.573h-4.556v-7.972c0-2.341.032-4.081-4.524-4.081a17.938,17.938,0,0,0-5.378.93v11.123h-4.556v-15.6l4.081-.443.346,1.853a13.111,13.111,0,0,1,6.867-2.107,7.7,7.7,0,0,1,5.964,2.469,14.751,14.751,0,0,1,7.956-2.469C149.56,434.261,153.356,436.729,153.356,441.98Zm-45.3,2.626a23.83,23.83,0,0,1-7.6-1.211c.549,2.677,3.675,3.615,7.349,3.615a31.809,31.809,0,0,0,8.162-1.2l.854,3.955a28,28,0,0,1-8.384,1.265c-6.549,0-12.686-2.373-12.686-8.225,0-6.011,5.884-8.573,11.452-8.573,5,0,9.776,2.088,9.776,5.568C116.975,443.246,112.7,444.606,108.053,444.606Zm-.19-2.373c2.468,0,4.524-.475,4.524-1.708,0-1.424-2.4-2.246-5.062-2.246-2.752,0-5.767.886-6.681,2.915A26.268,26.268,0,0,0,107.864,442.233Zm70.612.316c0,5.631-4.935,8.478-10.187,8.478a14.271,14.271,0,0,1-7.4-2.023v7.876h-4.524V434.957l4.049-.443.348,1.83a14.1,14.1,0,0,1,7.593-2.083C173.445,434.261,178.476,436.76,178.476,442.55Zm-4.619.032c0-2.341-1.455-4.081-6.043-4.081a34.34,34.34,0,0,0-6.928.912v6.475a32.968,32.968,0,0,0,6.992.965C171.231,446.852,173.857,445.84,173.857,442.581Zm55.732-8.32a13.8,13.8,0,0,0-7.308,2.057v-7.087l-4.524.443v20.88h4.524V439.4a30.56,30.56,0,0,1,6.454-.9c4.587,0,5.695,1.74,5.695,4.081v7.972h4.524v-8.478C238.953,436.824,234.461,434.261,229.589,434.261Zm-28.461,12.591a8.891,8.891,0,0,0,1.8-.221v3.923a19.258,19.258,0,0,1-3.733.475c-3.575,0-3.765-1.8-3.86-2.784-1.455,1.708-4.935,2.784-7.719,2.784-4.935,0-7.4-2.531-7.4-5.062,0-2.594,2.563-5.188,7.751-5.188a26.486,26.486,0,0,1,7.146.985c-.075-2.144-1.738-3.231-5.786-3.231a25.173,25.173,0,0,0-6.675.854l-1.424-3.955a28.644,28.644,0,0,1,8.1-1.139c7.593,0,10.345,3.259,10.345,7.593v3.891C199.672,446.346,199.862,446.852,201.127,446.852Zm-6.071-2.723a22.713,22.713,0,0,0-6.426-1.105c-2.12,0-3.765.506-3.765,1.961,0,1.582,1.614,2.215,3.543,2.215C190.737,447.2,194.543,446.185,195.056,444.129Zm63.574-9.394v9.972a12.312,12.312,0,0,1-6.8,2.082c-2.911,0-5.315-1.171-5.315-3.67v-8.384h-4.556v8.827c0,4.84,4.081,7.466,8.574,7.466a11.481,11.481,0,0,0,8.218-3.418l.2,1.361a2.716,2.716,0,0,1,.032.506c0,2.151-2.183,3.7-7.877,3.7a28.994,28.994,0,0,1-7.688-1.044l-.854,3.955a25.728,25.728,0,0,0,8.573,1.266c8.763,0,12.022-3.512,12.022-8.384V434.736Zm-48.456-4.366-4.524.443v3.923H202.93v2.689h2.721v8c0,4.144,1.9,5.6,5.283,5.6a20.922,20.922,0,0,0,3.86-.475v-3.448c-1.076.063-1.9.126-2.563.126-1.455,0-2.056-.348-2.056-1.8v-8h4.619v-2.689h-4.619Zm56.032,4.071a1.535,1.535,0,1,0,.009,0Zm0,.3a1.169,1.169,0,0,1,1.155,1.21,1.151,1.151,0,0,1-1.146,1.191,1.2,1.2,0,0,1-.018-2.4Zm-.238,1.384h.165c.192,0,.284.073.312.229a1.186,1.186,0,0,0,.119.367h.367a1.333,1.333,0,0,1-.11-.367c-.046-.2-.119-.321-.266-.367v-.018a.388.388,0,0,0,.311-.357.378.378,0,0,0-.156-.321.8.8,0,0,0-.513-.119,4.064,4.064,0,0,0-.577.046v1.5h.348Zm.009-.678a.836.836,0,0,1,.192-.018c.22,0,.321.092.321.229,0,.156-.156.22-.348.22h-.165Z" transform="translate(-95.747 -429.231)" fill="#1a1a1a"/>
</svg>
